<!DOCTYPE svg PUBLIC "-//W3C//DTD SVG 20010904//EN" "http://www.w3.org/TR/2001/REC-SVG-20010904/DTD/svg10.dtd">
<svg version="1.0" xmlns="http://www.w3.org/2000/svg" width="281px" height="110px" viewBox="0 0 2810 1100" preserveAspectRatio="xMidYMid meet">
<g id="layer101" fill="#1f1c19" stroke="none">
 <path d="M85 1086 c-17 -7 -43 -28 -58 -45 l-27 -33 0 -359 c0 -398 0 -399 63 -438 l34 -21 1308 0 1308 0 34 21 c63 39 63 40 63 438 l0 359 -27 33 c-53 63 29 59 -1380 59 -1048 -1 -1294 -3 -1318 -14z"/>
 </g>
<g id="layer102" fill="#4d3e30" stroke="none">
 <path d="M522 1020 l-19 -45 -7 43 c-7 38 -11 42 -36 42 -27 0 -28 -2 -34 -70 -8 -79 -21 -91 -31 -27 -3 23 -8 54 -11 70 l-6 27 -129 0 c-143 0 -176 -9 -197 -55 -9 -18 -12 -125 -12 -371 l0 -346 29 -29 29 -29 670 0 669 0 6 41 c3 22 8 43 10 46 12 11 26 -9 32 -47 l7 -40 363 0 362 0 6 41 c9 68 25 68 34 0 l6 -41 224 0 225 0 29 29 29 29 0 347 c0 378 -2 391 -57 414 -20 8 -326 12 -1100 13 l-1073 3 -18 -45z"/>
 </g>
<g id="layer103" fill="#5d4b38" stroke="none">
 <path d="M113 1048 c-18 -5 -41 -20 -52 -34 -20 -26 -21 -38 -21 -365 0 -222 4 -346 11 -362 6 -13 23 -31 39 -40 25 -15 90 -17 683 -17 l656 0 7 45 c3 25 10 48 16 51 14 9 38 -16 38 -41 0 -58 -18 -55 365 -55 l353 0 6 45 c12 74 43 72 53 -4 l6 -41 209 0 c228 0 254 5 277 57 12 26 14 660 2 702 -3 13 -18 32 -31 43 -24 17 -72 18 -1104 18 l-1080 1 -13 -23 c-7 -13 -12 -31 -13 -40 0 -34 -20 -18 -32 27 -18 65 -43 62 -52 -7 -17 -135 -25 -144 -45 -51 -22 100 -12 93 -136 96 -61 2 -125 -1 -142 -5z m217 -72 c0 -18 -63 -17 -82 2 -9 9 -2 12 35 12 34 0 47 -4 47 -14z m2364 -8 c10 -39 7 -306 -4 -313 -6 -4 -10 41 -10 129 0 74 -4 146 -9 159 l-10 25 -1038 -2 c-571 0 -1044 -5 -1050 -9 -15 -9 -16 -6 -7 17 6 14 109 16 1064 16 l1058 0 6 -22z"/>
 </g>
<g id="layer104" fill="#715c45" stroke="none">
 <path d="M82 1034 c-40 -28 -43 -56 -40 -407 l3 -337 28 -27 27 -28 664 -3 663 -2 7 50 c6 45 9 51 29 48 18 -2 24 -12 31 -51 l8 -47 351 2 351 3 9 45 c5 25 13 49 18 55 15 15 32 -11 38 -57 l6 -43 217 0 218 0 27 27 c26 26 27 34 30 125 1 54 -1 215 -4 357 -6 255 -6 260 -29 283 l-23 23 -1084 0 -1084 -1 -12 -40 c-15 -48 -32 -47 -45 4 -6 24 -15 37 -26 37 -14 0 -19 -13 -24 -62 -9 -77 -16 -108 -25 -108 -8 0 -41 125 -41 154 0 13 -19 15 -135 14 -94 0 -140 -4 -153 -14z m258 -51 c0 -28 48 -123 62 -124 17 -2 42 2 47 6 2 2 6 19 10 36 6 29 10 33 40 33 27 1 38 7 51 31 l17 30 1062 3 1061 2 11 -26 c10 -27 4 -668 -7 -685 -3 -5 -90 -9 -193 -9 l-189 0 -7 37 c-9 52 -22 73 -44 73 -28 0 -69 -37 -82 -75 l-13 -35 -316 0 -315 0 -20 53 c-18 46 -24 52 -51 55 -29 3 -33 -1 -55 -52 l-24 -56 -635 0 c-595 0 -636 1 -645 18 -6 10 -9 146 -7 360 l3 342 120 0 c107 0 119 -2 119 -17z"/>
 <path d="M132 638 l3 -323 609 0 c533 0 610 2 614 15 9 27 96 100 119 100 15 0 35 -17 63 -54 22 -30 48 -56 58 -58 9 -2 135 -4 280 -4 253 1 264 2 275 21 24 45 65 75 100 75 33 0 54 -18 99 -84 8 -12 286 -18 307 -6 11 6 14 37 12 156 -1 82 -4 150 -6 152 -2 2 -27 -9 -57 -24 -443 -224 -1429 -156 -2023 141 -180 90 -207 106 -272 164 -56 50 -58 51 -120 51 l-63 0 2 -322z"/>
 </g>

</svg>