<svg
    xmlns="http://www.w3.org/2000/svg"
    viewBox="0 0 900 900"
    id="vector">
    <path
        id="path_1"
        d="M 217 822 C 205 809 191 804 174 808 C 139 815 88 766 92 728 C 93 713 87 693 77 682 C 67 671 60 651 62 638 C 64 620 76 612 118 600 C 164 587 170 582 164 565 C 161 554 155 508 153 462 C 148 384 150 375 179 315 C 215 243 252 208 328 172 C 375 151 391 149 463 153 C 508 155 554 161 565 164 C 582 170 587 164 600 118 C 612 76 620 64 638 62 C 651 60 671 67 682 77 C 693 87 713 93 727 92 C 763 87 812 136 808 172 C 807 187 813 207 823 218 C 833 229 840 249 838 262 C 836 280 824 288 782 300 C 736 313 730 318 736 335 C 739 346 745 392 747 437 C 751 509 749 525 728 572 C 692 648 657 685 585 721 C 525 750 516 752 438 747 C 392 745 346 739 335 736 C 318 730 313 736 300 782 C 287 827 281 835 259 838 C 244 840 227 833 217 822 Z"
        fill="#492435"
        stroke="#00000000"/>
</svg>
