<svg
    xmlns="http://www.w3.org/2000/svg"
    viewBox="0 0 5580 5590"
    id="vector">
    <path
        id="path"
        d="M 2945 5570 C 2942 5559 2938 5475 2938 5383 C 2937 5239 2940 5206 2958 5153 C 2969 5118 2975 5090 2971 5090 C 2967 5090 2942 5104 2916 5122 C 2836 5175 2783 5262 2758 5380 C 2752 5413 2741 5440 2734 5440 C 2711 5440 2687 5303 2688 5180 C 2689 4988 2740 4877 2851 4825 L 2899 4803 L 2863 4727 C 2843 4684 2823 4650 2819 4650 C 2816 4650 2786 4668 2754 4689 C 2512 4850 2136 4957 1907 4931 C 1550 4889 1169 4629 969 4288 C 951 4257 934 4233 932 4235 C 924 4243 952 4418 975 4508 C 989 4560 1000 4606 1000 4611 C 1000 4634 969 4612 873 4519 C 815 4464 767 4420 765 4422 C 763 4424 756 4575 749 4758 C 740 5005 733 5090 724 5090 C 710 5090 642 4821 604 4610 C 590 4530 576 4463 575 4462 C 573 4460 568 4484 564 4516 C 556 4581 565 4736 586 4914 C 603 5065 603 5070 585 5070 C 548 5070 424 4871 346 4687 C 191 4324 77 3861 23 3380 C 1 3183 -2 2531 18 2345 C 70 1871 199 1400 375 1051 C 561 678 853 403 1252 224 C 1356 177 1674 60 1697 60 C 1704 60 1710 65 1710 71 C 1710 77 1640 164 1553 264 L 1397 445 L 1561 472 C 1651 486 1726 499 1728 499 C 1729 500 1730 506 1730 513 C 1730 519 1605 579 1452 646 L 1175 767 L 1166 851 C 1147 1036 1195 1316 1286 1543 C 1463 1986 1809 2321 2199 2429 L 2268 2448 L 2229 2372 C 2119 2156 2010 1769 2010 1592 C 2010 1399 2098 1210 2240 1103 C 2267 1082 2289 1063 2289 1060 C 2289 1057 2209 984 2110 896 C 1941 747 1908 710 1946 710 C 1954 710 2066 753 2193 805 C 2320 857 2426 898 2428 896 C 2430 893 2398 829 2356 752 C 2281 615 2268 580 2293 580 C 2299 580 2451 701 2629 849 L 2953 1117 L 3289 1255 C 3787 1460 3790 1461 3790 1472 C 3790 1493 3607 1800 3595 1800 C 3588 1800 3580 1782 3577 1759 C 3571 1714 3513 1621 3476 1597 C 3454 1582 3454 1583 3431 1666 C 3414 1728 3403 1750 3391 1750 C 3381 1750 3357 1715 3325 1655 L 3276 1560 L 3257 1597 C 3246 1618 3226 1647 3212 1662 C 3189 1687 3188 1692 3200 1719 C 3232 1798 3395 1890 3502 1890 C 3526 1890 3540 1895 3540 1903 C 3540 1915 3303 2060 3283 2060 C 3270 2060 3010 1763 3010 1749 C 3010 1744 2992 1740 2970 1740 C 2948 1740 2914 1734 2895 1726 C 2855 1709 2850 1716 2850 1788 C 2850 1878 2906 1964 3025 2061 C 3131 2147 3212 2265 3255 2397 C 3274 2454 3267 2453 3369 2416 C 3637 2318 3874 1972 3959 1553 C 4010 1305 4004 995 3944 755 C 3930 698 3880 539 3875 532 C 3873 530 3781 567 3669 614 C 3557 661 3460 700 3453 700 C 3429 700 3440 670 3519 512 L 3598 354 L 3437 371 C 3237 393 3187 394 3192 377 C 3194 371 3263 302 3345 226 C 3428 149 3516 67 3541 43 L 3586 -1 L 3676 20 C 4215 145 4608 448 4962 1015 C 5290 1540 5485 2157 5562 2910 C 5579 3074 5578 3616 5562 3780 C 5536 4025 5489 4262 5429 4448 C 5397 4546 5384 4530 5376 4383 C 5364 4155 5322 3920 5276 3820 L 5260 3785 L 5265 3860 C 5268 3901 5275 3991 5280 4060 C 5295 4254 5293 4550 5277 4550 C 5268 4550 5234 4427 5171 4173 C 5120 3965 5074 3778 5069 3756 L 5059 3718 L 5028 3746 C 4981 3791 4890 3917 4840 4007 C 4786 4105 4764 4115 4776 4038 C 4780 4009 4783 3927 4782 3855 C 4781 3655 4733 3504 4638 3395 C 4511 3251 4417 3253 4299 3402 C 4257 3456 4157 3653 4124 3748 C 4114 3776 4101 3800 4095 3800 C 4088 3800 4078 3761 4071 3703 C 4030 3389 3925 3182 3759 3087 C 3668 3035 3605 3044 3538 3118 C 3472 3191 3460 3226 3460 3347 C 3459 3588 3404 3846 3309 4049 C 3287 4095 3272 4135 3275 4138 C 3278 4141 3477 4169 3718 4201 C 3958 4233 4179 4266 4207 4275 C 4356 4321 4435 4470 4409 4655 C 4399 4731 4353 4850 4335 4850 C 4327 4850 4321 4826 4317 4781 C 4310 4696 4279 4628 4222 4574 C 4181 4534 4125 4502 4115 4512 C 4113 4514 4117 4538 4125 4565 C 4144 4626 4144 4728 4125 4855 C 4102 5010 4100 5020 4086 5020 C 4067 5020 3941 4829 3914 4760 C 3902 4730 3886 4679 3879 4648 C 3864 4579 3852 4583 3820 4666 C 3796 4731 3794 4817 3815 4886 C 3847 4990 3826 4997 3745 4908 C 3711 4870 3670 4809 3642 4752 C 3599 4665 3596 4655 3596 4576 L 3595 4492 L 3376 4404 L 3157 4317 L 3121 4361 C 3102 4385 3062 4430 3033 4460 L 2981 4516 L 3160 4705 C 3258 4810 3364 4918 3397 4946 C 3429 4974 3469 5021 3485 5051 C 3512 5100 3515 5113 3515 5200 C 3515 5286 3512 5301 3484 5361 C 3448 5436 3400 5494 3330 5545 C 3287 5577 3250 5590 3250 5574 C 3250 5570 3265 5538 3282 5502 C 3325 5415 3331 5330 3301 5249 C 3289 5218 3271 5185 3260 5175 C 3239 5156 3241 5152 3220 5225 C 3213 5247 3194 5290 3178 5320 C 3141 5387 2980 5590 2963 5590 C 2957 5590 2949 5581 2945 5570 Z M 2017 4435 C 2154 4391 2256 4318 2325 4214 C 2435 4049 2513 3639 2465 3485 C 2411 3316 2285 3247 2119 3296 C 2029 3323 1911 3390 1849 3450 C 1728 3568 1688 3727 1725 3935 C 1733 3979 1740 4023 1740 4033 C 1740 4066 1715 4049 1682 3995 C 1625 3901 1539 3801 1471 3749 C 1329 3642 1196 3644 1085 3756 C 1055 3786 1030 3818 1030 3828 C 1030 3853 1102 3999 1147 4068 C 1275 4261 1483 4392 1755 4453 C 1819 4467 1942 4459 2017 4435 Z"
        fill="#244932"
        stroke="#00000000"/>
</svg>
