<svg
    xmlns="http://www.w3.org/2000/svg"
    viewBox="0 0 99 99"
    id="vector">
    <path
        id="path"
        d="M 61.679 28.709 C 67.654 28.709 72.514 23.848 72.514 17.873 C 72.514 11.898 67.654 7.038 61.679 7.038 C 55.704 7.038 50.843 11.899 50.843 17.874 C 50.843 23.849 55.704 28.709 61.679 28.709 Z"
        fill="#000000"/>
    <path
        id="path_1"
        d="M 73.78 32.246 C 73.305 32.246 72.837 32.278 72.372 32.317 C 72.225 32.146 72.061 31.991 71.88 31.856 C 63.209 32.806 56.439 40.169 56.439 49.089 C 56.439 58.419 63.851 66.031 73.093 66.396 L 73.093 65.896 C 73.323 65.905 73.549 65.931 73.781 65.931 C 83.083 65.931 90.624 58.391 90.624 49.089 C 90.623 39.787 83.083 32.246 73.78 32.246 Z"
        fill="#000000"/>
    <path
        id="path_2"
        d="M 54.439 49.089 C 54.439 41.072 59.342 34.18 66.307 31.251 L 54.811 31.251 L 32.43 15.241 C 31.923 14.878 31.326 14.686 30.704 14.686 C 30.209 14.686 29.732 14.811 29.308 15.037 L 27.104 13.212 L 28.167 11.928 C 28.872 11.077 28.752 9.816 27.902 9.112 C 27.051 8.407 25.791 8.528 25.086 9.377 L 24.023 10.661 L 11.698 0.46 C 10.847 -0.245 9.586 -0.126 8.882 0.725 C 8.177 1.576 8.296 2.837 9.147 3.541 L 21.472 13.743 L 20.409 15.027 C 19.704 15.878 19.824 17.139 20.674 17.843 C 21.047 18.152 21.499 18.302 21.948 18.302 C 22.523 18.302 23.094 18.055 23.49 17.577 L 24.553 16.292 L 26.797 18.149 C 26.117 19.464 26.478 21.124 27.711 22.006 L 50.263 38.139 L 50.263 64.374 L 50.263 64.877 L 50.263 94.043 C 50.263 96.8 52.506 99.043 55.263 99.043 L 55.614 99.043 C 58.371 99.043 60.614 96.8 60.614 94.043 L 60.614 67.879 L 62.741 67.879 L 62.741 94.045 C 62.741 96.802 64.984 99.045 67.741 99.045 L 68.093 99.045 C 70.85 99.045 73.093 96.802 73.093 94.045 L 73.093 68.396 C 62.747 68.03 54.439 59.522 54.439 49.089 Z"
        fill="#000000"/>
</svg>
