<svg
    xmlns="http://www.w3.org/2000/svg"
    viewBox="0 0 2030 560"
    id="vector">
    <path
        id="path"
        d="M 0 280 L 0 0 L 1015 0 L 2030 0 L 2030 280 L 2030 560 L 1015 560 L 0 560 L 0 280 Z"
        fill="#1a1817"
        stroke="#00000000"/>
    <path
        id="path_1"
        d="M 0 373 L 0 185 L 63 182 C 97 180 170 173 225 166 L 325 154 L 163 146 L 0 138 L 0 69 L 0 0 L 767 0 C 1509 0 1533 1 1517 18 C 1495 42 1496 50 1519 50 C 1530 50 1541 42 1545 31 C 1553 6 1609 0 1843 0 L 2030 0 L 2030 280 L 2030 560 L 1015 560 L 0 560 L 0 373 Z M 1598 503 C 1582 501 1558 501 1543 503 C 1527 505 1540 507 1570 507 C 1600 507 1613 505 1598 503 Z M 250 484 C 335 481 407 476 409 474 C 411 472 327 470 222 470 C 66 470 30 473 30 484 C 30 493 40 496 63 494 C 80 492 165 487 250 484 Z M 1534 478 C 1507 471 1460 471 1399 477 L 1305 487 L 1440 487 C 1550 488 1567 486 1534 478 Z M 727 463 C 723 460 717 460 713 463 C 710 467 713 470 720 470 C 727 470 730 467 727 463 Z M 1284 451 C 1301 444 1072 447 1040 454 C 1032 456 1079 458 1145 458 C 1211 458 1273 455 1284 451 Z M 1347 454 C 1344 451 1335 450 1328 453 C 1320 456 1323 459 1334 459 C 1345 460 1351 457 1347 454 Z M 1503 443 C 1496 441 1482 441 1473 443 C 1463 446 1469 448 1485 448 C 1502 448 1509 446 1503 443 Z M 1613 443 C 1595 441 1565 441 1548 443 C 1530 445 1544 447 1580 447 C 1616 447 1630 445 1613 443 Z M 1680 440 C 1672 435 1661 430 1655 430 C 1650 430 1652 435 1660 440 C 1668 445 1680 450 1685 450 C 1691 450 1688 445 1680 440 Z M 2010 431 C 2010 424 1779 427 1755 435 C 1750 437 1805 439 1878 439 C 1950 440 2010 436 2010 431 Z M 356 403 L 435 395 L 340 390 C 284 387 224 389 195 396 L 145 408 L 211 409 C 247 410 313 407 356 403 Z M 2005 180 C 2002 175 1984 171 1967 171 L 1935 173 L 1970 180 C 1989 184 2006 188 2008 189 C 2010 189 2008 186 2005 180 Z M 418 153 C 402 151 378 151 363 153 C 347 155 360 157 390 157 C 420 157 433 155 418 153 Z M 868 143 C 852 141 828 141 813 143 C 797 145 810 147 840 147 C 870 147 883 145 868 143 Z M 1107 133 C 1103 130 1097 130 1093 133 C 1090 137 1093 140 1100 140 C 1107 140 1110 137 1107 133 Z M 1278 133 C 1257 131 1221 131 1198 133 C 1174 135 1191 137 1235 137 C 1279 137 1298 135 1278 133 Z M 1448 123 C 1432 121 1408 121 1393 123 C 1377 125 1390 127 1420 127 C 1450 127 1463 125 1448 123 Z M 1798 113 C 1777 111 1743 111 1723 113 C 1702 115 1719 117 1760 117 C 1801 117 1818 115 1798 113 Z M 1877 114 C 1874 111 1865 110 1858 113 C 1850 116 1853 119 1864 119 C 1875 120 1881 117 1877 114 Z M 2010 110 C 2010 105 2001 100 1991 100 C 1980 100 1968 105 1965 110 C 1961 116 1970 120 1984 120 C 1998 120 2010 116 2010 110 Z M 760 70 L 855 63 L 765 63 C 716 63 646 66 610 70 L 545 77 L 605 77 C 638 78 708 74 760 70 Z M 1487 43 C 1483 40 1477 40 1473 43 C 1470 47 1473 50 1480 50 C 1487 50 1490 47 1487 43 Z M 1653 13 C 1646 11 1634 11 1628 13 C 1621 16 1626 18 1640 18 C 1654 18 1659 16 1653 13 Z"
        fill="#5d4b38"
        stroke="#00000000"/>
    <path
        id="path_2"
        d="M 1 418 C 2 339 4 283 7 293 C 13 316 30 315 30 291 C 30 280 36 269 43 266 C 51 263 50 258 37 250 C 28 244 23 234 26 228 C 31 221 27 219 17 223 C 5 228 0 224 0 211 C 0 185 23 183 395 171 C 566 165 829 156 980 150 C 1196 142 1936 127 1998 130 C 2004 130 2010 121 2010 110 C 2010 99 2006 90 2001 90 C 1996 90 1984 87 1974 83 C 1963 79 1959 81 1963 87 C 1967 94 1948 97 1907 96 C 1873 96 1793 98 1730 103 C 1667 107 1543 112 1455 115 C 1367 118 1126 125 920 131 C 428 145 21 145 7 131 C 1 125 -1 120 3 120 C 6 120 73 109 151 95 C 283 72 331 71 299 91 C 283 101 348 94 400 80 C 419 75 446 68 460 66 C 474 64 386 63 265 66 C 144 68 35 73 23 76 C 2 82 0 79 0 42 L 0 1 L 763 2 C 1182 3 1508 5 1488 7 C 1467 9 1450 15 1450 19 C 1450 23 1464 24 1481 22 C 1503 19 1511 21 1506 29 C 1502 35 1478 41 1452 41 L 1405 43 L 1445 49 C 1505 58 1542 50 1548 28 C 1552 12 1559 9 1584 14 C 1638 23 1758 30 1725 21 C 1647 1 1881 -4 1974 16 C 1993 20 2000 19 1996 11 C 1992 4 1997 0 2009 0 C 2029 0 2029 6 2030 244 L 2030 489 L 2007 493 L 1985 497 L 2008 499 C 2044 501 2033 519 1993 522 C 1932 527 1805 519 1818 511 C 1825 507 1802 505 1768 508 C 1728 510 1710 508 1718 502 C 1752 479 1341 466 1275 488 C 1253 496 1284 498 1395 495 C 1486 493 1529 494 1505 499 C 1471 506 1477 508 1550 510 C 1616 512 1627 514 1600 520 L 1565 527 L 1605 530 C 1627 531 1656 531 1669 530 C 1682 529 1690 533 1686 538 C 1683 544 1686 551 1692 554 C 1699 557 1649 558 1580 556 C 1499 554 1455 549 1452 541 C 1450 534 1407 530 1323 530 C 1253 530 1199 532 1201 534 C 1203 536 1248 541 1300 544 C 1352 548 1396 553 1398 555 C 1401 557 1287 558 1145 555 C 1004 553 886 549 882 546 C 879 543 893 540 913 540 C 933 540 950 535 950 529 C 950 523 942 521 932 524 C 923 527 875 534 825 540 C 645 561 648 561 725 534 C 779 515 786 511 755 515 C 637 533 590 540 540 549 C 510 554 376 559 243 559 L 0 560 L 1 418 Z M 172 543 C 159 540 146 532 143 524 C 140 516 126 510 111 509 C 92 508 96 506 125 500 C 174 491 849 471 1668 455 C 1766 453 1840 456 1840 461 C 1840 466 1849 470 1860 470 C 1871 470 1880 466 1880 460 C 1880 455 1900 450 1925 450 C 1950 450 1970 455 1970 460 C 1970 466 1979 470 1990 470 C 2004 470 2010 463 2010 446 C 2010 433 2006 420 2000 418 C 1995 417 1915 418 1823 421 C 1730 425 1549 431 1420 434 C 1291 438 1124 443 1050 446 C 976 448 728 453 500 456 C 272 459 70 463 52 466 C 21 471 19 473 25 502 C 30 523 29 530 21 526 C 15 522 10 523 10 529 C 10 534 25 541 43 543 C 87 548 201 548 172 543 Z M 387 533 C 383 530 377 530 373 533 C 370 537 373 540 380 540 C 387 540 390 537 387 533 Z M 467 533 C 463 530 457 530 453 533 C 450 537 453 540 460 540 C 467 540 470 537 467 533 Z M 1517 534 C 1514 531 1505 530 1498 533 C 1490 536 1493 539 1504 539 C 1515 540 1521 537 1517 534 Z M 1083 513 C 1070 511 1048 511 1033 513 C 1017 515 1028 517 1055 517 C 1083 517 1095 515 1083 513 Z M 1188 513 C 1172 511 1148 511 1133 513 C 1117 515 1130 517 1160 517 C 1190 517 1203 515 1188 513 Z M 1393 513 C 1375 511 1345 511 1328 513 C 1310 515 1324 517 1360 517 C 1396 517 1410 515 1393 513 Z M 55 440 C 58 435 52 430 41 430 C 29 430 20 435 20 440 C 20 446 26 450 34 450 C 42 450 52 446 55 440 Z M 327 443 C 323 440 317 440 313 443 C 310 447 313 450 320 450 C 327 450 330 447 327 443 Z M 278 433 C 268 431 252 431 243 433 C 233 436 241 438 260 438 C 279 438 287 436 278 433 Z M 46 400 C 65 400 64 384 44 376 C 21 367 20 368 21 398 C 21 413 24 419 27 413 C 29 406 38 400 46 400 Z M 490 400 C 459 392 281 388 120 391 C 78 392 71 394 90 400 C 104 404 207 408 320 408 C 452 408 513 405 490 400 Z M 2005 390 C 2002 385 1992 384 1984 387 C 1972 391 1971 395 1981 401 C 1996 410 2013 403 2005 390 Z M 197 374 C 194 371 185 370 178 373 C 170 376 173 379 184 379 C 195 380 201 377 197 374 Z M 1647 364 C 1644 361 1635 360 1628 363 C 1620 366 1623 369 1634 369 C 1645 370 1651 367 1647 364 Z M 1838 363 C 1823 361 1796 361 1778 363 C 1760 365 1772 367 1805 367 C 1838 367 1853 365 1838 363 Z M 2008 334 C 2004 331 1993 333 1983 339 C 1972 345 1970 350 1978 350 C 1986 350 1988 355 1984 363 C 1980 369 1985 367 1995 358 C 2006 348 2011 338 2008 334 Z M 47 347 C 42 330 10 326 10 342 C 10 350 19 356 31 357 C 43 358 50 354 47 347 Z M 80 356 C 80 353 75 348 68 344 C 61 340 60 341 64 348 C 71 360 80 364 80 356 Z M 247 353 C 243 350 237 350 233 353 C 230 357 233 360 240 360 C 247 360 250 357 247 353 Z M 1907 353 C 1903 350 1897 350 1893 353 C 1890 357 1893 360 1900 360 C 1907 360 1910 357 1907 353 Z M 127 344 C 124 341 115 340 108 343 C 100 346 103 349 114 349 C 125 350 131 347 127 344 Z M 1683 333 C 1676 331 1664 331 1658 333 C 1651 336 1656 338 1670 338 C 1684 338 1689 336 1683 333 Z M 1788 333 C 1772 331 1748 331 1733 333 C 1717 335 1730 337 1760 337 C 1790 337 1803 335 1788 333 Z M 2009 314 C 2024 301 1994 301 1953 313 L 1905 328 L 1955 323 C 1983 320 2007 316 2009 314 Z M 1843 293 C 1814 291 1766 291 1738 293 C 1709 295 1732 296 1790 296 C 1848 296 1871 295 1843 293 Z M 2010 280 C 2010 275 1996 273 1978 277 C 1932 285 1930 290 1973 290 C 1994 290 2010 286 2010 280 Z M 1747 234 C 1744 231 1735 230 1728 233 C 1720 236 1723 239 1734 239 C 1745 240 1751 237 1747 234 Z M 1893 233 C 1880 231 1860 231 1848 233 C 1835 235 1845 237 1870 237 C 1895 237 1905 235 1893 233 Z M 1947 233 C 1943 230 1937 230 1933 233 C 1930 237 1933 240 1940 240 C 1947 240 1950 237 1947 233 Z M 2008 223 C 2006 209 1994 205 1955 204 L 1905 203 L 1953 207 C 1998 211 2014 223 1988 233 C 1980 236 1983 239 1993 239 C 2005 240 2010 234 2008 223 Z M 57 223 C 53 220 47 220 43 223 C 40 227 43 230 50 230 C 57 230 60 227 57 223 Z M 1747 203 C 1743 200 1737 200 1733 203 C 1730 207 1733 210 1740 210 C 1747 210 1750 207 1747 203 Z M 1857 204 C 1854 201 1845 200 1838 203 C 1830 206 1833 209 1844 209 C 1855 210 1861 207 1857 204 Z M 2013 174 C 2008 162 1999 159 1971 164 C 1951 167 1888 171 1830 172 L 1725 174 L 1865 180 C 1942 183 2008 187 2012 188 C 2016 189 2017 183 2013 174 Z M 153 123 C 146 121 134 121 128 123 C 121 126 126 128 140 128 C 154 128 159 126 153 123 Z M 340 114 C 347 107 321 104 265 105 C 218 106 176 110 172 115 C 168 119 188 120 215 116 C 247 113 258 113 245 119 C 231 125 241 127 278 126 C 307 124 335 119 340 114 Z M 810 70 C 860 63 833 62 698 63 C 598 64 516 70 511 75 C 499 87 710 83 810 70 Z M 1907 64 C 1904 61 1895 60 1888 63 C 1880 66 1883 69 1894 69 C 1905 70 1911 67 1907 64 Z M 1693 53 C 1686 51 1674 51 1668 53 C 1661 56 1666 58 1680 58 C 1694 58 1699 56 1693 53 Z M 1747 54 C 1744 51 1735 50 1728 53 C 1720 56 1723 59 1734 59 C 1745 60 1751 57 1747 54 Z M 1797 53 C 1793 50 1787 50 1783 53 C 1780 57 1783 60 1790 60 C 1797 60 1800 57 1797 53 Z M 1853 53 C 1846 51 1834 51 1828 53 C 1821 56 1826 58 1840 58 C 1854 58 1859 56 1853 53 Z M 222 41 C 214 37 209 29 210 24 C 211 19 206 14 198 12 C 189 10 190 12 200 19 C 211 27 202 29 165 25 L 115 21 L 159 30 C 183 35 205 42 208 45 C 211 48 218 50 224 50 C 230 50 229 46 222 41 Z M 2000 46 C 2000 43 1995 38 1988 34 C 1981 30 1980 31 1984 38 C 1991 50 2000 54 2000 46 Z M 103 33 C 96 31 84 31 78 33 C 71 36 76 38 90 38 C 104 38 109 36 103 33 Z M 255 20 C 258 14 254 13 246 16 C 228 23 225 30 239 30 C 245 30 252 26 255 20 Z M 47 14 C 44 11 35 10 28 13 C 20 16 23 19 34 19 C 45 20 51 17 47 14 Z"
        fill="#5d4b38"
        stroke="#00000000"/>
    <path
        id="path_3"
        d="M 1718 553 C 1725 550 1734 551 1737 554 C 1741 557 1735 560 1724 559 C 1713 559 1710 556 1718 553 Z"
        fill="#715c45"
        stroke="#00000000"/>
    <path
        id="path_4"
        d="M 1905 555 C 1929 547 2030 544 2030 552 C 2030 556 2000 560 1963 559 C 1925 559 1900 557 1905 555 Z"
        fill="#715c45"
        stroke="#00000000"/>
    <path
        id="path_5"
        d="M 0 100 C 0 94 6 90 13 90 C 19 90 43 87 65 84 C 92 79 102 81 95 88 C 81 102 0 112 0 100 Z"
        fill="#715c45"
        stroke="#00000000"/>
    <path
        id="path_6"
        d="M 0 550 C 0 543 21 541 63 546 C 146 555 148 560 67 560 C 27 560 0 556 0 550 Z"
        fill="#715c45"
        stroke="#00000000"/>
    <path
        id="path_7"
        d="M 1551 556 C 1553 554 1577 550 1604 547 C 1634 544 1647 546 1639 551 C 1626 559 1542 564 1551 556 Z"
        fill="#715c45"
        stroke="#00000000"/>
    <path
        id="path_8"
        d="M 1958 553 C 1970 551 1990 551 2003 553 C 2015 555 2005 557 1980 557 C 1955 557 1945 555 1958 553 Z"
        fill="#715c45"
        stroke="#00000000"/>
    <path
        id="path_9"
        d="M 943 543 C 952 541 966 541 973 543 C 979 546 972 548 955 548 C 939 548 933 546 943 543 Z"
        fill="#715c45"
        stroke="#00000000"/>
    <path
        id="path_10"
        d="M 780 529 C 799 524 824 515 835 510 C 846 505 866 499 880 496 C 894 493 885 493 860 495 C 835 497 786 504 750 511 C 675 525 553 524 515 510 C 500 504 474 500 457 499 C 427 498 426 498 450 491 C 464 487 670 480 908 476 C 1146 472 1349 466 1358 463 C 1367 460 1372 461 1367 465 C 1356 478 1273 489 1120 500 C 1046 505 942 517 889 525 C 779 542 723 544 780 529 Z"
        fill="#715c45"
        stroke="#00000000"/>
    <path
        id="path_11"
        d="M 1008 533 C 1015 530 1024 531 1027 534 C 1031 537 1025 540 1014 539 C 1003 539 1000 536 1008 533 Z"
        fill="#715c45"
        stroke="#00000000"/>
    <path
        id="path_12"
        d="M 1113 523 C 1117 520 1123 520 1127 523 C 1130 527 1127 530 1120 530 C 1113 530 1110 527 1113 523 Z"
        fill="#715c45"
        stroke="#00000000"/>
    <path
        id="path_13"
        d="M 1331 526 C 1333 524 1394 520 1465 517 C 1547 514 1580 515 1555 520 C 1516 529 1322 534 1331 526 Z"
        fill="#715c45"
        stroke="#00000000"/>
    <path
        id="path_14"
        d="M 5 500 C 8 495 13 490 16 490 C 18 490 20 495 20 500 C 20 506 15 510 9 510 C 4 510 2 506 5 500 Z"
        fill="#715c45"
        stroke="#00000000"/>
    <path
        id="path_15"
        d="M 185 500 C 219 497 279 496 320 500 C 384 506 375 507 260 507 C 159 507 140 506 185 500 Z"
        fill="#715c45"
        stroke="#00000000"/>
    <path
        id="path_16"
        d="M 1251 506 C 1253 504 1316 500 1390 497 C 1480 494 1502 495 1455 500 C 1379 508 1244 512 1251 506 Z"
        fill="#715c45"
        stroke="#00000000"/>
    <path
        id="path_17"
        d="M 1830 490 C 1830 485 1842 480 1858 481 C 1882 481 1883 482 1865 490 C 1838 502 1830 502 1830 490 Z"
        fill="#715c45"
        stroke="#00000000"/>
    <path
        id="path_18"
        d="M 7 473 C 3 470 0 437 0 402 C 0 320 7 325 15 413 C 21 479 20 487 7 473 Z"
        fill="#715c45"
        stroke="#00000000"/>
    <path
        id="path_19"
        d="M 1505 470 C 1449 465 1481 463 1610 463 C 1723 462 1784 465 1767 470 C 1737 479 1631 479 1505 470 Z"
        fill="#715c45"
        stroke="#00000000"/>
    <path
        id="path_20"
        d="M 1993 473 C 2002 471 2016 471 2023 473 C 2029 476 2022 478 2005 478 C 1989 478 1983 476 1993 473 Z"
        fill="#715c45"
        stroke="#00000000"/>
    <path
        id="path_21"
        d="M 65 450 C 68 445 86 439 103 439 L 135 437 L 101 431 C 82 428 65 419 62 411 C 59 402 62 400 70 405 C 77 409 218 412 384 412 C 615 411 721 406 840 391 C 950 378 978 372 938 371 C 906 370 832 376 773 384 C 616 405 558 409 535 399 C 519 393 524 391 555 389 C 629 386 675 382 772 371 C 912 355 1169 357 1309 376 C 1376 384 1436 390 1443 387 C 1450 385 1433 380 1405 376 C 1378 372 1292 357 1215 343 C 1078 318 950 315 870 335 C 739 368 538 381 375 366 C 326 361 288 360 291 364 C 294 367 337 374 386 379 L 475 387 L 400 388 C 321 388 188 374 248 371 C 285 370 289 360 260 342 C 249 335 240 333 240 337 C 240 342 219 343 193 341 C 157 338 150 335 165 329 C 177 325 156 323 113 324 C 72 325 40 322 40 316 C 40 311 82 309 148 313 C 207 316 261 316 268 311 C 286 300 250 290 188 290 C 137 290 125 276 163 260 C 182 251 181 250 152 253 C 133 255 115 251 108 243 C 99 231 101 230 121 234 C 196 249 248 250 260 235 C 267 227 269 220 264 219 C 240 217 217 211 212 204 C 208 200 264 201 335 206 C 540 220 711 214 825 191 C 916 172 919 171 860 176 C 824 179 771 185 741 191 C 644 207 274 198 286 179 C 289 174 375 170 478 170 C 581 170 751 166 855 160 C 1018 152 1499 138 1670 136 C 1788 135 1971 144 1982 152 C 1989 156 1889 158 1760 155 C 1514 151 1486 160 1681 180 C 1744 187 1797 194 1799 196 C 1801 198 1765 201 1719 202 C 1673 203 1654 205 1678 207 C 1701 209 1720 215 1720 221 C 1720 226 1714 230 1708 230 C 1664 229 1319 189 1293 181 C 1276 176 1226 169 1183 166 C 1106 161 1106 161 1165 171 C 1198 176 1257 187 1295 195 C 1410 219 1666 243 1807 242 C 1880 242 1938 246 1935 250 C 1932 255 1936 260 1942 263 C 1965 271 1859 283 1812 277 C 1786 274 1745 275 1721 280 C 1663 291 1478 275 1317 245 C 1244 232 1156 219 1120 216 C 1084 213 1066 213 1080 216 C 1094 219 1137 228 1175 236 C 1270 257 1478 288 1581 296 C 1690 305 1720 315 1665 324 C 1638 329 1567 322 1461 305 C 1371 291 1296 281 1293 283 C 1288 289 1454 319 1575 334 C 1655 344 1667 347 1634 351 C 1597 355 1500 342 1102 281 C 1028 269 964 257 959 254 C 942 244 970 220 999 220 C 1013 220 1032 215 1040 210 C 1051 203 1038 200 997 200 C 895 200 866 237 948 264 C 999 281 1129 305 1225 315 C 1258 318 1326 327 1375 335 C 1425 343 1498 354 1538 361 C 1577 367 1610 375 1610 379 C 1610 384 1674 386 1753 385 C 1831 384 1880 385 1862 388 C 1844 390 1832 394 1834 398 C 1836 402 1777 403 1702 400 C 1626 397 1556 397 1545 401 C 1534 405 1588 410 1665 411 L 1805 413 L 1625 421 C 1435 429 1152 437 680 448 C 478 453 385 452 360 444 C 318 430 150 419 150 430 C 150 439 196 447 260 449 C 284 450 306 453 309 456 C 311 458 256 460 186 460 C 104 460 61 456 65 450 Z M 760 429 C 834 423 954 415 1025 411 L 1155 403 L 1046 402 C 925 400 521 434 605 439 C 616 439 686 435 760 429 Z M 1355 400 C 1358 394 1354 393 1346 396 C 1328 403 1325 410 1339 410 C 1345 410 1352 406 1355 400 Z M 1407 404 C 1404 401 1395 400 1388 403 C 1380 406 1383 409 1394 409 C 1405 410 1411 407 1407 404 Z M 1517 394 C 1514 391 1505 390 1498 393 C 1490 396 1493 399 1504 399 C 1515 400 1521 397 1517 394 Z M 1217 384 C 1214 381 1205 380 1198 383 C 1190 386 1193 389 1204 389 C 1215 390 1221 387 1217 384 Z M 745 328 C 795 322 870 293 870 278 C 870 258 819 251 655 251 C 557 250 478 251 481 254 C 484 256 710 269 783 270 C 788 270 785 277 777 284 C 752 310 638 322 477 318 C 394 315 317 310 308 306 C 298 301 290 302 290 307 C 290 312 296 317 303 318 C 309 318 347 323 385 329 C 455 338 650 338 745 328 Z M 240 272 C 240 268 224 266 205 268 C 186 270 170 274 170 276 C 170 278 186 280 205 280 C 224 280 240 276 240 272 Z M 1273 273 C 1266 271 1254 271 1248 273 C 1241 276 1246 278 1260 278 C 1274 278 1279 276 1273 273 Z M 1207 263 C 1203 260 1197 260 1193 263 C 1190 267 1193 270 1200 270 C 1207 270 1210 267 1207 263 Z M 1750 262 C 1750 258 1741 254 1730 253 C 1719 252 1712 255 1715 261 C 1722 272 1750 273 1750 262 Z M 1857 264 C 1854 261 1845 260 1838 263 C 1830 266 1833 269 1844 269 C 1855 270 1861 267 1857 264 Z M 1565 250 C 1505 246 1428 240 1395 236 C 1362 233 1340 233 1346 236 C 1370 247 1487 257 1580 257 L 1675 257 L 1565 250 Z M 469 246 C 467 244 434 240 395 237 C 350 234 337 234 360 239 C 397 248 476 253 469 246 Z M 707 234 C 704 231 695 230 688 233 C 680 236 683 239 694 239 C 705 240 711 237 707 234 Z M 757 233 C 753 230 747 230 743 233 C 740 237 743 240 750 240 C 757 240 760 237 757 233 Z M 879 214 C 890 204 871 204 820 216 L 765 229 L 820 224 C 850 221 877 217 879 214 Z M 1327 223 C 1323 220 1317 220 1313 223 C 1310 227 1313 230 1320 230 C 1327 230 1330 227 1327 223 Z M 917 194 C 914 191 905 190 898 193 C 890 196 893 199 904 199 C 915 200 921 197 917 194 Z M 1167 194 C 1164 191 1155 190 1148 193 C 1140 196 1143 199 1154 199 C 1165 200 1171 197 1167 194 Z M 1618 193 C 1608 191 1592 191 1583 193 C 1573 196 1581 198 1600 198 C 1619 198 1627 196 1618 193 Z M 608 183 C 592 181 568 181 553 183 C 537 185 550 187 580 187 C 610 187 623 185 608 183 Z M 1118 183 C 1108 181 1090 181 1078 183 C 1065 185 1073 187 1095 187 C 1117 188 1127 186 1118 183 Z M 1543 183 C 1536 181 1524 181 1518 183 C 1511 186 1516 188 1530 188 C 1544 188 1549 186 1543 183 Z M 1470 170 C 1456 166 1436 162 1425 162 C 1409 162 1410 164 1430 170 C 1444 174 1464 178 1475 178 C 1491 178 1490 176 1470 170 Z M 1397 153 C 1393 150 1387 150 1383 153 C 1380 157 1383 160 1390 160 C 1397 160 1400 157 1397 153 Z"
        fill="#715c45"
        stroke="#00000000"/>
    <path
        id="path_22"
        d="M 1923 453 C 1932 451 1946 451 1953 453 C 1959 456 1952 458 1935 458 C 1919 458 1913 456 1923 453 Z"
        fill="#715c45"
        stroke="#00000000"/>
    <path
        id="path_23"
        d="M 2008 328 L 2005 205 L 1915 200 L 1825 195 L 1905 190 C 2032 182 2030 180 2030 327 C 2030 489 2012 490 2008 328 Z"
        fill="#715c45"
        stroke="#00000000"/>
    <path
        id="path_24"
        d="M 1943 413 C 1947 410 1953 410 1957 413 C 1960 417 1957 420 1950 420 C 1943 420 1940 417 1943 413 Z"
        fill="#715c45"
        stroke="#00000000"/>
    <path
        id="path_25"
        d="M 98 387 C 71 381 50 373 50 368 C 50 363 60 362 73 366 C 94 373 140 378 189 379 C 202 380 211 382 209 384 C 197 394 139 395 98 387 Z"
        fill="#715c45"
        stroke="#00000000"/>
    <path
        id="path_26"
        d="M 1926 390 C 1915 387 1911 381 1916 378 C 1939 365 1958 362 1970 370 C 1989 382 1950 399 1926 390 Z"
        fill="#715c45"
        stroke="#00000000"/>
    <path
        id="path_27"
        d="M 183 363 C 187 360 193 360 197 363 C 200 367 197 370 190 370 C 183 370 180 367 183 363 Z"
        fill="#715c45"
        stroke="#00000000"/>
    <path
        id="path_28"
        d="M 1785 351 C 1854 337 1951 330 1945 339 C 1942 345 1932 348 1922 348 C 1913 348 1869 350 1825 353 C 1771 357 1758 357 1785 351 Z"
        fill="#715c45"
        stroke="#00000000"/>
    <path
        id="path_29"
        d="M 1965 330 C 1968 325 1973 320 1976 320 C 1978 320 1980 325 1980 330 C 1980 336 1975 340 1969 340 C 1964 340 1962 336 1965 330 Z"
        fill="#715c45"
        stroke="#00000000"/>
    <path
        id="path_30"
        d="M 0 320 C 0 313 3 310 7 313 C 10 317 10 323 7 327 C 3 330 0 327 0 320 Z"
        fill="#715c45"
        stroke="#00000000"/>
    <path
        id="path_31"
        d="M 1748 313 C 1771 311 1807 311 1828 313 C 1848 315 1829 317 1785 317 C 1741 317 1724 315 1748 313 Z"
        fill="#715c45"
        stroke="#00000000"/>
    <path
        id="path_32"
        d="M 1888 303 C 1900 301 1920 301 1933 303 C 1945 305 1935 307 1910 307 C 1885 307 1875 305 1888 303 Z"
        fill="#715c45"
        stroke="#00000000"/>
    <path
        id="path_33"
        d="M 1960 300 C 1960 295 1965 290 1971 290 C 1976 290 1978 295 1975 300 C 1972 306 1967 310 1964 310 C 1962 310 1960 306 1960 300 Z"
        fill="#715c45"
        stroke="#00000000"/>
    <path
        id="path_34"
        d="M 100 275 C 100 266 105 260 111 262 C 117 264 122 270 122 275 C 122 280 117 286 111 288 C 105 290 100 284 100 275 Z"
        fill="#715c45"
        stroke="#00000000"/>
    <path
        id="path_35"
        d="M 53 273 C 57 270 63 270 67 273 C 70 277 67 280 60 280 C 53 280 50 277 53 273 Z"
        fill="#715c45"
        stroke="#00000000"/>
    <path
        id="path_36"
        d="M 1956 255 C 1953 246 1956 240 1965 240 C 1973 240 1980 247 1980 255 C 1980 263 1976 270 1971 270 C 1966 270 1960 263 1956 255 Z"
        fill="#715c45"
        stroke="#00000000"/>
    <path
        id="path_37"
        d="M 63 253 C 67 250 73 250 77 253 C 80 257 77 260 70 260 C 63 260 60 257 63 253 Z"
        fill="#715c45"
        stroke="#00000000"/>
    <path
        id="path_38"
        d="M 53 233 C 57 230 63 230 67 233 C 70 237 67 240 60 240 C 53 240 50 237 53 233 Z"
        fill="#715c45"
        stroke="#00000000"/>
    <path
        id="path_39"
        d="M 0 207 C 0 197 32 190 130 180 C 260 168 324 171 213 185 C 181 189 148 195 140 200 C 132 204 97 210 63 214 C 13 220 0 218 0 207 Z"
        fill="#715c45"
        stroke="#00000000"/>
    <path
        id="path_40"
        d="M 1923 213 C 1932 211 1948 211 1958 213 C 1967 216 1959 218 1940 218 C 1921 218 1913 216 1923 213 Z"
        fill="#715c45"
        stroke="#00000000"/>
    <path
        id="path_41"
        d="M 2017 183 C 2006 173 2009 120 2020 120 C 2026 120 2030 136 2030 155 C 2030 191 2028 195 2017 183 Z"
        fill="#715c45"
        stroke="#00000000"/>
    <path
        id="path_42"
        d="M 259 146 C 257 144 200 140 132 139 C 64 137 6 132 4 128 C -1 121 38 115 67 119 C 74 120 119 112 166 100 C 214 89 255 82 257 84 C 260 86 224 97 178 108 L 95 128 L 182 129 C 230 130 272 135 275 140 C 281 150 268 154 259 146 Z"
        fill="#715c45"
        stroke="#00000000"/>
    <path
        id="path_43"
        d="M 348 119 C 368 98 446 70 484 70 C 500 70 502 72 491 79 C 483 84 480 95 483 104 C 488 116 502 120 542 119 L 595 118 L 545 106 L 495 94 L 529 87 C 547 83 617 80 684 79 C 750 79 825 75 850 71 L 895 63 L 841 61 C 811 61 789 57 793 54 C 803 44 993 49 1004 60 C 1011 67 1005 70 984 71 C 968 71 947 74 938 78 C 928 82 1058 84 1225 84 C 1397 83 1530 86 1530 91 C 1530 96 1534 100 1540 100 C 1545 100 1546 92 1543 82 C 1536 66 1537 66 1554 83 C 1577 105 1598 105 1577 83 C 1563 66 1565 65 1613 65 C 1642 65 1670 68 1675 71 C 1681 75 1701 80 1720 84 L 1755 90 L 1720 75 L 1685 60 L 1719 65 C 1737 68 1778 71 1809 71 C 1843 72 1853 75 1835 77 C 1819 80 1802 87 1798 93 C 1792 102 1787 101 1780 90 C 1773 79 1768 78 1762 87 C 1757 96 1655 102 1405 110 C 1212 115 936 125 790 130 C 644 136 481 140 427 140 L 329 140 L 348 119 Z M 783 103 C 776 101 764 101 758 103 C 751 106 756 108 770 108 C 784 108 789 106 783 103 Z M 1093 103 C 1080 101 1060 101 1048 103 C 1035 105 1045 107 1070 107 C 1095 107 1105 105 1093 103 Z M 673 93 C 666 91 652 91 643 93 C 633 96 639 98 655 98 C 672 98 679 96 673 93 Z M 904 91 C 909 83 820 88 811 96 C 809 98 827 100 853 100 C 878 100 901 96 904 91 Z M 1203 93 C 1190 91 1168 91 1153 93 C 1137 95 1148 97 1175 97 C 1203 97 1215 95 1203 93 Z"
        fill="#715c45"
        stroke="#00000000"/>
    <path
        id="path_44"
        d="M 2006 78 C 1995 36 1999 0 2015 0 C 2026 0 2030 12 2030 50 C 2030 102 2017 117 2006 78 Z"
        fill="#715c45"
        stroke="#00000000"/>
    <path
        id="path_45"
        d="M 1918 83 C 1925 80 1934 81 1937 84 C 1941 87 1935 90 1924 89 C 1913 89 1910 86 1918 83 Z"
        fill="#715c45"
        stroke="#00000000"/>
    <path
        id="path_46"
        d="M 0 57 C 0 37 8 32 78 17 C 120 7 164 0 175 1 C 186 1 165 8 128 16 C 41 35 -3 53 55 46 C 77 43 111 45 130 49 C 161 57 158 58 102 59 C 67 60 30 65 19 70 C 3 79 0 77 0 57 Z"
        fill="#715c45"
        stroke="#00000000"/>
    <path
        id="path_47"
        d="M 1398 63 C 1404 61 1416 61 1423 63 C 1429 66 1424 68 1410 68 C 1396 68 1391 66 1398 63 Z"
        fill="#715c45"
        stroke="#00000000"/>
    <path
        id="path_48"
        d="M 1460 61 C 1460 57 1477 53 1497 53 C 1520 52 1539 45 1549 32 C 1564 14 1569 13 1650 26 C 1716 36 1723 38 1682 37 C 1654 36 1630 38 1630 41 C 1630 45 1611 51 1588 54 C 1509 65 1460 67 1460 61 Z"
        fill="#715c45"
        stroke="#00000000"/>
    <path
        id="path_49"
        d="M 260 50 C 234 32 286 0 341 0 C 380 0 388 3 386 17 C 385 32 394 35 440 37 L 495 38 L 445 26 L 395 14 L 429 7 C 447 3 571 1 704 2 C 895 4 920 5 825 10 L 705 15 L 805 20 C 860 23 1041 25 1207 25 C 1497 25 1569 31 1430 44 C 1394 47 1345 53 1320 56 C 1295 60 1203 57 1115 50 C 902 34 815 32 758 41 C 680 55 277 62 260 50 Z M 683 23 C 676 21 664 21 658 23 C 651 26 656 28 670 28 C 684 28 689 26 683 23 Z M 573 13 C 566 11 552 11 543 13 C 533 16 539 18 555 18 C 572 18 579 16 573 13 Z"
        fill="#715c45"
        stroke="#00000000"/>
    <path
        id="path_50"
        d="M 1845 39 L 1775 21 L 1858 22 C 1903 23 1946 28 1953 32 C 1962 39 1961 40 1950 39 C 1918 36 1906 42 1930 50 C 1980 66 1916 58 1845 39 Z M 1903 33 C 1896 31 1884 31 1878 33 C 1871 36 1876 38 1890 38 C 1904 38 1909 36 1903 33 Z"
        fill="#715c45"
        stroke="#00000000"/>
    <path
        id="path_51"
        d="M 1135 10 C 1117 5 1153 2 1230 3 C 1326 3 1343 4 1305 10 C 1243 20 1174 20 1135 10 Z"
        fill="#715c45"
        stroke="#00000000"/>
    <path
        id="path_52"
        d="M 1728 13 C 1735 10 1744 11 1747 14 C 1751 17 1745 20 1734 19 C 1723 19 1720 16 1728 13 Z"
        fill="#715c45"
        stroke="#00000000"/>
    <path
        id="path_53"
        d="M 958 3 C 964 1 976 1 983 3 C 989 6 984 8 970 8 C 956 8 951 6 958 3 Z"
        fill="#715c45"
        stroke="#00000000"/>
    <path
        id="path_54"
        d="M 1048 3 C 1060 1 1078 1 1088 3 C 1097 6 1087 8 1065 7 C 1043 7 1035 5 1048 3 Z"
        fill="#715c45"
        stroke="#00000000"/>
    <path
        id="path_55"
        d="M 1403 3 C 1418 1 1440 1 1453 3 C 1465 5 1453 7 1425 7 C 1398 7 1387 5 1403 3 Z"
        fill="#715c45"
        stroke="#00000000"/>
</svg>
